<svg width="18" height="20" viewBox="0 0 18 20" fill="none" xmlns="http://www.w3.org/2000/svg">
<path d="M16.7347 18.4235H15.967V0.921175C15.967 0.412418 15.5546 0 15.0459 0H2.14941C1.64065 0 1.22823 0.412418 1.22823 0.921175V18.4235H0.460588C0.206228 18.4235 0 18.6297 0 18.8841V19.6517H17.1953V18.8841C17.1953 18.6297 16.989 18.4235 16.7347 18.4235ZM4.91294 2.91706C4.91294 2.6627 5.11916 2.45647 5.37352 2.45647H6.90882C7.16318 2.45647 7.3694 2.6627 7.3694 2.91706V4.45235C7.3694 4.70671 7.16318 4.91294 6.90882 4.91294H5.37352C5.11916 4.91294 4.91294 4.70671 4.91294 4.45235V2.91706ZM4.91294 6.60176C4.91294 6.3474 5.11916 6.14117 5.37352 6.14117H6.90882C7.16318 6.14117 7.3694 6.3474 7.3694 6.60176V8.13705C7.3694 8.39141 7.16318 8.59764 6.90882 8.59764H5.37352C5.11916 8.59764 4.91294 8.39141 4.91294 8.13705V6.60176ZM6.90882 12.2823H5.37352C5.11916 12.2823 4.91294 12.0761 4.91294 11.8218V10.2865C4.91294 10.0321 5.11916 9.82587 5.37352 9.82587H6.90882C7.16318 9.82587 7.3694 10.0321 7.3694 10.2865V11.8218C7.3694 12.0761 7.16318 12.2823 6.90882 12.2823ZM9.82587 18.4235H7.3694V15.1994C7.3694 14.945 7.57563 14.7388 7.82999 14.7388H9.36528C9.61964 14.7388 9.82587 14.945 9.82587 15.1994V18.4235ZM12.2823 11.8218C12.2823 12.0761 12.0761 12.2823 11.8218 12.2823H10.2865C10.0321 12.2823 9.82587 12.0761 9.82587 11.8218V10.2865C9.82587 10.0321 10.0321 9.82587 10.2865 9.82587H11.8218C12.0761 9.82587 12.2823 10.0321 12.2823 10.2865V11.8218ZM12.2823 8.13705C12.2823 8.39141 12.0761 8.59764 11.8218 8.59764H10.2865C10.0321 8.59764 9.82587 8.39141 9.82587 8.13705V6.60176C9.82587 6.3474 10.0321 6.14117 10.2865 6.14117H11.8218C12.0761 6.14117 12.2823 6.3474 12.2823 6.60176V8.13705ZM12.2823 4.45235C12.2823 4.70671 12.0761 4.91294 11.8218 4.91294H10.2865C10.0321 4.91294 9.82587 4.70671 9.82587 4.45235V2.91706C9.82587 2.6627 10.0321 2.45647 10.2865 2.45647H11.8218C12.0761 2.45647 12.2823 2.6627 12.2823 2.91706V4.45235Z" fill="#FFAF25"/>
</svg>
