<svg width="28" height="28" viewBox="0 0 28 28" fill="none" xmlns="http://www.w3.org/2000/svg">
<path d="M27.7277 11.2581H26.6V11.2H14V16.8H21.9121C20.7578 20.0599 17.6561 22.4 14 22.4C9.3611 22.4 5.6 18.6389 5.6 14C5.6 9.3611 9.3611 5.6 14 5.6C16.1413 5.6 18.0894 6.4078 19.5727 7.7273L23.5326 3.7674C21.0322 1.4371 17.6876 0 14 0C6.2685 0 0 6.2685 0 14C0 21.7315 6.2685 28 14 28C21.7315 28 28 21.7315 28 14C28 13.0613 27.9034 12.145 27.7277 11.2581Z" fill="#FFC107"/>
<path d="M1.61475 7.4837L6.21445 10.857C7.45905 7.7756 10.4732 5.6 14.0005 5.6C16.1418 5.6 18.0899 6.4078 19.5732 7.7273L23.5331 3.7674C21.0327 1.4371 17.6881 0 14.0005 0C8.62315 0 3.95975 3.0359 1.61475 7.4837Z" fill="#FF3D00"/>
<path d="M14.0001 27.9991C17.6163 27.9991 20.9021 26.6152 23.3864 24.3647L19.0534 20.6981C17.6478 21.7628 15.9006 22.3991 14.0001 22.3991C10.3587 22.3991 7.26682 20.0772 6.10202 16.8369L1.53662 20.3544C3.85362 24.8883 8.55902 27.9991 14.0001 27.9991Z" fill="#4CAF50"/>
<path d="M27.7277 11.2573H26.6V11.1992H14V16.7992H21.9121C21.3577 18.3651 20.3504 19.7154 19.0512 20.6989L19.0533 20.6975L23.3863 24.3641C23.0797 24.6427 28 20.9992 28 13.9992C28 13.0605 27.9034 12.1442 27.7277 11.2573Z" fill="#1976D2"/>
</svg>
