<svg width="29" height="31" viewBox="0 0 29 31" fill="none" xmlns="http://www.w3.org/2000/svg">
<path d="M24.0265 4.75843C21.3922 1.98837 17.884 0.464844 14.1557 0.464844C6.46028 0.464844 0.198313 7.03383 0.198313 15.1066C0.198313 17.6854 0.839599 20.2048 2.0593 22.4274L0.0788574 30.0121L7.4788 27.9741C9.51583 29.1415 11.8106 29.7549 14.1494 29.7549H14.1557C21.8449 29.7549 28.2452 23.1859 28.2452 15.1132C28.2452 11.2021 26.6608 7.52848 24.0265 4.75843ZM14.1557 27.2882C12.0684 27.2882 10.0251 26.7012 8.24583 25.5932L7.82459 25.3294L3.43618 26.5363L4.60558 22.0449L4.32895 21.5832C3.16583 19.6442 2.55598 17.4083 2.55598 15.1066C2.55598 8.39907 7.76172 2.93811 14.162 2.93811C17.2616 2.93811 20.1725 4.20442 22.3604 6.5062C24.5483 8.80799 25.8938 11.8616 25.8875 15.1132C25.8875 21.8272 20.5497 27.2882 14.1557 27.2882ZM20.5183 18.1734C20.1725 17.9887 18.4561 17.105 18.1355 16.9862C17.8148 16.8609 17.5822 16.8016 17.3496 17.1709C17.117 17.5403 16.4505 18.3581 16.243 18.6087C16.0419 18.8527 15.8344 18.8857 15.4886 18.701C13.439 17.626 12.0935 16.7818 10.7418 14.3481C10.3834 13.7017 11.1002 13.7479 11.7666 12.3497C11.8798 12.1057 11.8232 11.8946 11.7352 11.7099C11.6472 11.5253 10.9493 9.72474 10.6601 8.99266C10.3772 8.28036 10.088 8.37929 9.87419 8.3661C9.673 8.3529 9.44038 8.35291 9.20776 8.35291C8.97513 8.35291 8.59791 8.44524 8.27726 8.80799C7.95662 9.17733 7.05756 10.0611 7.05756 11.8616C7.05756 13.6622 8.3087 15.4034 8.47845 15.6474C8.65449 15.8914 10.9367 19.5848 14.4386 21.1743C16.6517 22.1768 17.5193 22.2625 18.6259 22.0911C19.2986 21.9855 20.688 21.2073 20.9772 20.3499C21.2665 19.4925 21.2665 18.7604 21.1784 18.6087C21.0967 18.4438 20.8641 18.3515 20.5183 18.1734Z" fill="#FFAF25"/>
</svg>
