<svg width="29" height="35" viewBox="0 0 29 35" fill="none" xmlns="http://www.w3.org/2000/svg">
<path d="M0.0788574 31.0742C0.0788574 32.822 1.43059 34.24 3.09668 34.24H25.2273C26.8934 34.24 28.2452 32.822 28.2452 31.0742V13.1348H0.0788574V31.0742ZM20.1976 18.1473C20.1976 17.712 20.5371 17.3558 20.9521 17.3558H23.4669C23.8819 17.3558 24.2214 17.712 24.2214 18.1473V20.7854C24.2214 21.2207 23.8819 21.5769 23.4669 21.5769H20.9521C20.5371 21.5769 20.1976 21.2207 20.1976 20.7854V18.1473ZM20.1976 26.5893C20.1976 26.154 20.5371 25.7979 20.9521 25.7979H23.4669C23.8819 25.7979 24.2214 26.154 24.2214 26.5893V29.2275C24.2214 29.6628 23.8819 30.0189 23.4669 30.0189H20.9521C20.5371 30.0189 20.1976 29.6628 20.1976 29.2275V26.5893ZM12.1501 18.1473C12.1501 17.712 12.4896 17.3558 12.9046 17.3558H15.4194C15.8344 17.3558 16.1739 17.712 16.1739 18.1473V20.7854C16.1739 21.2207 15.8344 21.5769 15.4194 21.5769H12.9046C12.4896 21.5769 12.1501 21.2207 12.1501 20.7854V18.1473ZM12.1501 26.5893C12.1501 26.154 12.4896 25.7979 12.9046 25.7979H15.4194C15.8344 25.7979 16.1739 26.154 16.1739 26.5893V29.2275C16.1739 29.6628 15.8344 30.0189 15.4194 30.0189H12.9046C12.4896 30.0189 12.1501 29.6628 12.1501 29.2275V26.5893ZM4.10261 18.1473C4.10261 17.712 4.44212 17.3558 4.85707 17.3558H7.37192C7.78687 17.3558 8.12637 17.712 8.12637 18.1473V20.7854C8.12637 21.2207 7.78687 21.5769 7.37192 21.5769H4.85707C4.44212 21.5769 4.10261 21.2207 4.10261 20.7854V18.1473ZM4.10261 26.5893C4.10261 26.154 4.44212 25.7979 4.85707 25.7979H7.37192C7.78687 25.7979 8.12637 26.154 8.12637 26.5893V29.2275C8.12637 29.6628 7.78687 30.0189 7.37192 30.0189H4.85707C4.44212 30.0189 4.10261 29.6628 4.10261 29.2275V26.5893ZM25.2273 4.69272H22.2095V1.52694C22.2095 0.946546 21.7569 0.47168 21.2036 0.47168H19.1917C18.6384 0.47168 18.1858 0.946546 18.1858 1.52694V4.69272H10.1383V1.52694C10.1383 0.946546 9.68558 0.47168 9.13231 0.47168H7.12043C6.56717 0.47168 6.11449 0.946546 6.11449 1.52694V4.69272H3.09668C1.43059 4.69272 0.0788574 6.11072 0.0788574 7.85849V11.0243H28.2452V7.85849C28.2452 6.11072 26.8934 4.69272 25.2273 4.69272Z" fill="#FFAF25"/>
</svg>
