<svg width="27" height="33" viewBox="0 0 27 33" fill="none" xmlns="http://www.w3.org/2000/svg">
<path d="M12.415 32.3155C2.67097 18.8524 0.862305 17.4707 0.862305 12.5228C0.862305 5.74523 6.62704 0.250977 13.7382 0.250977C20.8494 0.250977 26.6142 5.74523 26.6142 12.5228C26.6142 17.4707 24.8055 18.8524 15.0615 32.3155C14.4221 33.1959 13.0543 33.1958 12.415 32.3155ZM13.7382 17.636C16.7012 17.636 19.1032 15.3468 19.1032 12.5228C19.1032 9.69879 16.7012 7.40953 13.7382 7.40953C10.7752 7.40953 8.37327 9.69879 8.37327 12.5228C8.37327 15.3468 10.7752 17.636 13.7382 17.636Z" fill="#FFAF25"/>
</svg>
