<svg width="24" height="27" viewBox="0 0 24 27" fill="none" xmlns="http://www.w3.org/2000/svg">
<path d="M12.0001 19.75C12.6751 19.75 13.2223 19.1904 13.2223 18.5C13.2223 17.8096 12.6751 17.25 12.0001 17.25C11.325 17.25 10.7778 17.8096 10.7778 18.5C10.7778 19.1904 11.325 19.75 12.0001 19.75Z" stroke="#FFAF25" stroke-width="2" stroke-linecap="round" stroke-linejoin="round"/>
<path d="M20.5556 11H3.44444C2.09441 11 1 12.1193 1 13.5V23.5C1 24.8807 2.09441 26 3.44444 26H20.5556C21.9056 26 23 24.8807 23 23.5V13.5C23 12.1193 21.9056 11 20.5556 11Z" stroke="#FFAF25" stroke-width="2" stroke-linecap="round" stroke-linejoin="round"/>
<path d="M5.88916 11V7.25C5.88916 5.5924 6.53301 4.00269 7.67906 2.83058C8.82512 1.65848 10.3795 1 12.0003 1C13.621 1 15.1754 1.65848 16.3215 2.83058C17.4675 4.00269 18.1114 5.5924 18.1114 7.25V11" stroke="#FFAF25" stroke-width="2" stroke-linecap="round" stroke-linejoin="round"/>
</svg>
