<svg width="27" height="20" viewBox="0 0 27 20" fill="none" xmlns="http://www.w3.org/2000/svg">
<path d="M1.07813 10.1838C0.973957 9.90314 0.973957 9.59444 1.07813 9.31381C2.0927 6.85375 3.81488 4.75034 6.02634 3.27024C8.2378 1.79014 10.8389 1 13.5 1C16.1611 1 18.7622 1.79014 20.9737 3.27024C23.1851 4.75034 24.9073 6.85375 25.9219 9.31381C26.026 9.59444 26.026 9.90314 25.9219 10.1838C24.9073 12.6438 23.1851 14.7472 20.9737 16.2273C18.7622 17.7074 16.1611 18.4976 13.5 18.4976C10.8389 18.4976 8.2378 17.7074 6.02634 16.2273C3.81488 14.7472 2.0927 12.6438 1.07813 10.1838Z" stroke="#B5B5B5" stroke-width="2" stroke-linecap="round" stroke-linejoin="round"/>
<path d="M13.5001 13.4986C15.571 13.4986 17.2499 11.8198 17.2499 9.74883C17.2499 7.67787 15.571 5.99902 13.5001 5.99902C11.4291 5.99902 9.75024 7.67787 9.75024 9.74883C9.75024 11.8198 11.4291 13.4986 13.5001 13.4986Z" stroke="#B5B5B5" stroke-width="2" stroke-linecap="round" stroke-linejoin="round"/>
</svg>
