<svg width="33" height="23" viewBox="0 0 33 23" fill="none" xmlns="http://www.w3.org/2000/svg">
<path d="M29.5074 0H2.68249C1.20153 0 0 1.086 0 2.42457V3.23276H32.1898V2.42457C32.1898 1.086 30.9883 0 29.5074 0ZM0 20.2047C0 21.5433 1.20153 22.6293 2.68249 22.6293H29.5074C30.9883 22.6293 32.1898 21.5433 32.1898 20.2047V4.84914H0V20.2047ZM19.6716 8.48599C19.6716 8.26374 19.8728 8.0819 20.1186 8.0819H28.1661C28.412 8.0819 28.6132 8.26374 28.6132 8.48599V9.29418C28.6132 9.51643 28.412 9.69827 28.1661 9.69827H20.1186C19.8728 9.69827 19.6716 9.51643 19.6716 9.29418V8.48599ZM19.6716 11.7187C19.6716 11.4965 19.8728 11.3147 20.1186 11.3147H28.1661C28.412 11.3147 28.6132 11.4965 28.6132 11.7187V12.5269C28.6132 12.7492 28.412 12.931 28.1661 12.931H20.1186C19.8728 12.931 19.6716 12.7492 19.6716 12.5269V11.7187ZM19.6716 14.9515C19.6716 14.7293 19.8728 14.5474 20.1186 14.5474H28.1661C28.412 14.5474 28.6132 14.7293 28.6132 14.9515V15.7597C28.6132 15.9819 28.412 16.1638 28.1661 16.1638H20.1186C19.8728 16.1638 19.6716 15.9819 19.6716 15.7597V14.9515ZM9.83578 8.0819C11.8085 8.0819 13.4124 9.53159 13.4124 11.3147C13.4124 13.0977 11.8085 14.5474 9.83578 14.5474C7.86304 14.5474 6.25914 13.0977 6.25914 11.3147C6.25914 9.53159 7.86304 8.0819 9.83578 8.0819ZM3.74989 18.3964C4.21933 17.0983 5.56616 16.1638 7.1533 16.1638H7.61156C8.29894 16.4214 9.0478 16.5679 9.83578 16.5679C10.6238 16.5679 11.3782 16.4214 12.06 16.1638H12.5183C14.1054 16.1638 15.4522 17.0983 15.9217 18.3964C16.1005 18.8965 15.6311 19.3965 15.0499 19.3965H4.6217C4.0405 19.3965 3.57106 18.8914 3.74989 18.3964Z" fill="#FFAF25"/>
</svg>
