<svg width="30" height="30" viewBox="0 0 30 30" fill="none" xmlns="http://www.w3.org/2000/svg">
<path d="M18.75 19.9998L21.92 10.8398C22.0067 10.5892 22.1693 10.3718 22.3853 10.218C22.6013 10.0641 22.8598 9.98145 23.125 9.98145C23.3902 9.98145 23.6487 10.0641 23.8647 10.218C24.0807 10.3718 24.2433 10.5892 24.33 10.8398L27.5 19.9998" stroke="#FFAF25" stroke-width="2" stroke-linecap="round" stroke-linejoin="round"/>
<path d="M19.6213 17.5H26.6288" stroke="#FFAF25" stroke-width="2" stroke-linecap="round" stroke-linejoin="round"/>
<path d="M2.5 19.9999L7.54875 7.88743C7.59622 7.77356 7.67633 7.67629 7.77899 7.60786C7.88165 7.53944 8.00226 7.50293 8.12563 7.50293C8.24899 7.50293 8.3696 7.53944 8.47226 7.60786C8.57492 7.67629 8.65503 7.77356 8.7025 7.88743L13.75 19.9999" stroke="#FFAF25" stroke-width="2" stroke-linecap="round" stroke-linejoin="round"/>
<path d="M4.12988 16.25H12.1199" stroke="#FFAF25" stroke-width="2" stroke-linecap="round" stroke-linejoin="round"/>
</svg>
